<?xml version="1.0" encoding="utf-8"?>
<!-- Generator: Adobe Illustrator 16.0.0, SVG Export Plug-In . SVG Version: 6.00 Build 0)  -->
<!DOCTYPE svg PUBLIC "-//W3C//DTD SVG 1.1//EN" "http://www.w3.org/Graphics/SVG/1.1/DTD/svg11.dtd">
<svg version="1.1" xmlns="http://www.w3.org/2000/svg" xmlns:xlink="http://www.w3.org/1999/xlink" x="0px" y="0px"
	 width="335.986px" height="235.19px" viewBox="0 0 335.986 235.19" enable-background="new 0 0 335.986 235.19"
	 xml:space="preserve">
<g id="bg">
	<g>
		<g>
			<rect x="0.204" y="0" fill="#FFFFFF" width="335.987" height="235.191"/>
		</g>
	</g>
	<path fill="#FFFFFF" stroke="#0E3C54" stroke-width="2" stroke-miterlimit="10" d="M313.133,17.186h-54.055
		c-1.506,0-2.73,1.227-2.73,2.728v0.272V53.86v0.272c0,1.501,1.227,2.728,2.73,2.728h54.055c1.504,0,2.73-1.227,2.73-2.728V53.86
		V20.186v-0.272C315.863,18.413,314.635,17.186,313.133,17.186z"/>
	<path fill="#FFFFFF" stroke="#0E3C54" stroke-width="2" stroke-miterlimit="10" d="M21.028,106.615v87.513
		c0,1.502,1.228,2.729,2.73,2.729h54.055c1.505,0,2.73-1.227,2.73-2.729v-87.513H21.028z"/>
	<path fill="#FFFFFF" stroke="#0E3C54" stroke-width="2" stroke-miterlimit="10" d="M77.813,95.692H23.758
		c-1.503,0-2.73,1.23-2.73,2.732v8.19h59.516v-8.19C80.543,96.922,79.318,95.692,77.813,95.692"/>
	<path fill="#FFFFFF" stroke="#0E3C54" stroke-width="2" stroke-miterlimit="10" d="M61.434,101.155
		c0,1.505-1.222,2.729-2.727,2.729c-1.509,0-2.73-1.225-2.73-2.729c0-1.511,1.222-2.73,2.73-2.73
		C60.212,98.424,61.434,99.644,61.434,101.155"/>
	<path fill="#FFFFFF" stroke="#0E3C54" stroke-width="2" stroke-miterlimit="10" d="M69.625,101.155c0,1.505-1.222,2.729-2.73,2.729
		c-1.506,0-2.73-1.225-2.73-2.729c0-1.511,1.225-2.73,2.73-2.73C68.404,98.424,69.625,99.644,69.625,101.155"/>
	<path fill="#6BD9E3" stroke="#0E3C54" stroke-width="2" stroke-miterlimit="10" d="M77.813,101.155
		c0,1.505-1.222,2.729-2.729,2.729c-1.506,0-2.728-1.225-2.728-2.729c0-1.511,1.222-2.73,2.728-2.73
		C76.591,98.424,77.813,99.644,77.813,101.155"/>
	<path fill="#FFFFFF" stroke="#0E3C54" stroke-width="2" stroke-miterlimit="10" d="M240.74,137.218
		c0,2.693-2.361,4.877-5.275,4.877h-133.16c-2.913,0-5.274-2.184-5.274-4.877V64.444c0-2.695,2.361-4.878,5.274-4.878h133.16
		c2.914,0,5.275,2.183,5.275,4.878V137.218z"/>
	<path fill="#FFFFFF" stroke="#0E3C54" stroke-width="2" stroke-miterlimit="10" d="M237.236,130.55c0,2.35-2.246,4.254-5.018,4.254
		H105.55c-2.769,0-5.016-1.904-5.016-4.254V67.084c0-2.348,2.247-4.253,5.016-4.253h126.668c2.771,0,5.018,1.905,5.018,4.253V130.55
		z"/>
	<path fill="#6BD9E3" stroke="#0E3C54" stroke-width="2" stroke-miterlimit="10" d="M240.738,214.979
		c0,2.529-2.359,4.578-5.273,4.578H102.304c-2.913,0-5.274-2.049-5.274-4.578v-68.307c0-2.527,2.361-4.578,5.274-4.578h133.161
		c2.914,0,5.273,2.051,5.273,4.578V214.979z"/>
	<path fill="#FFFFFF" stroke="#0E3C54" stroke-width="2" stroke-miterlimit="10" d="M215.037,144.524
		c0,0.844-0.906,1.521-2.025,1.521h-85.117c-1.118,0-2.024-0.678-2.024-1.521v-0.906c0-0.84,0.906-1.52,2.024-1.52h85.117
		c1.119,0,2.025,0.68,2.025,1.52V144.524z"/>
	<g>
		<g>
			
				<rect x="108.525" y="152.513" fill="#FFFFFF" stroke="#0E3C54" stroke-width="2" stroke-miterlimit="10" width="10.16" height="9.396"/>
			<polygon fill="#FFFFFF" stroke="#0E3C54" stroke-width="2" stroke-miterlimit="10" points="134.452,161.89 124.293,161.903 
				124.284,152.503 134.442,152.495 			"/>
			
				<rect x="140.049" y="152.485" transform="matrix(1 -0.0012 0.0012 1 -0.1812 0.1675)" fill="#FFFFFF" stroke="#0E3C54" stroke-width="2" stroke-miterlimit="10" width="10.159" height="9.398"/>
			<polygon fill="#FFFFFF" stroke="#0E3C54" stroke-width="2" stroke-miterlimit="10" points="165.975,161.868 155.814,161.876 
				155.804,152.472 165.966,152.47 			"/>
			
				<rect x="171.57" y="152.461" fill="#FFFFFF" stroke="#0E3C54" stroke-width="2" stroke-miterlimit="10" width="10.162" height="9.396"/>
			
				<rect x="187.333" y="152.445" fill="#FFFFFF" stroke="#0E3C54" stroke-width="2" stroke-miterlimit="10" width="10.16" height="9.4"/>
			
				<rect x="203.095" y="152.433" fill="#FFFFFF" stroke="#0E3C54" stroke-width="2" stroke-miterlimit="10" width="10.158" height="9.4"/>
			
				<rect x="218.856" y="152.421" fill="#FFFFFF" stroke="#0E3C54" stroke-width="2" stroke-miterlimit="10" width="10.158" height="9.398"/>
		</g>
		<g>
			
				<rect x="108.536" y="165.492" fill="#FFFFFF" stroke="#0E3C54" stroke-width="2" stroke-miterlimit="10" width="10.162" height="9.4"/>
			
				<rect x="124.3" y="165.476" transform="matrix(1 -0.0012 0.0012 1 -0.1962 0.1493)" fill="#FFFFFF" stroke="#0E3C54" stroke-width="2" stroke-miterlimit="10" width="10.161" height="9.404"/>
			
				<rect x="140.061" y="165.468" fill="#FFFFFF" stroke="#0E3C54" stroke-width="2" stroke-miterlimit="10" width="10.158" height="9.398"/>
			
				<rect x="155.822" y="165.451" fill="#FFFFFF" stroke="#0E3C54" stroke-width="2" stroke-miterlimit="10" width="10.161" height="9.4"/>
			
				<rect x="171.584" y="165.437" transform="matrix(1 -0.0012 0.0012 1 -0.1961 0.2039)" fill="#FFFFFF" stroke="#0E3C54" stroke-width="2" stroke-miterlimit="10" width="10.16" height="9.402"/>
			
				<rect x="187.345" y="165.426" fill="#FFFFFF" stroke="#0E3C54" stroke-width="2" stroke-miterlimit="10" width="10.16" height="9.4"/>
			<polygon fill="#FFFFFF" stroke="#0E3C54" stroke-width="2" stroke-miterlimit="10" points="229.049,174.794 229.039,165.396 
				229.023,165.396 229.01,152.413 218.854,152.423 218.865,165.407 203.102,165.421 203.115,174.817 218.873,174.804 
				218.873,174.804 229.031,174.796 229.031,174.794 			"/>
		</g>
		<g>
			
				<rect x="108.55" y="178.471" fill="#FFFFFF" stroke="#0E3C54" stroke-width="2" stroke-miterlimit="10" width="10.161" height="9.398"/>
			<polygon fill="#FFFFFF" stroke="#0E3C54" stroke-width="2" stroke-miterlimit="10" points="181.766,187.808 124.32,187.854 
				124.306,178.46 181.742,178.407 			"/>
			
				<rect x="187.357" y="178.404" fill="#FFFFFF" stroke="#0E3C54" stroke-width="2" stroke-miterlimit="10" width="10.16" height="9.4"/>
			
				<rect x="203.119" y="178.392" fill="#FFFFFF" stroke="#0E3C54" stroke-width="2" stroke-miterlimit="10" width="10.162" height="9.4"/>
			
				<rect x="218.881" y="178.381" fill="#FFFFFF" stroke="#0E3C54" stroke-width="2" stroke-miterlimit="10" width="10.16" height="9.398"/>
		</g>
	</g>
	
		<rect x="140.272" y="192.179" fill="#FFFFFF" stroke="#0E3C54" stroke-width="2" stroke-miterlimit="10" width="57.226" height="20.771"/>
	<rect x="28.72" y="186.845" fill="#34525C" width="35.444" height="2.061"/>
	<polygon fill="#6BD9E3" stroke="#0E3C54" stroke-width="2" stroke-miterlimit="10" points="278.289,86.844 289.91,82.316 
		257.457,66.526 268.037,101.391 274.709,89.761 283.346,99.665 285.113,98.125 285.113,98.124 286.824,96.631 	"/>
	
		<rect x="29.673" y="165.667" fill="#FFFFFF" stroke="#0E3C54" stroke-width="2" stroke-miterlimit="10" width="4.229" height="5.145"/>
	
		<rect x="38.678" y="165.667" fill="#FFFFFF" stroke="#0E3C54" stroke-width="2" stroke-miterlimit="10" width="33.948" height="5.145"/>
	
		<rect x="29.673" y="175.612" fill="#FFFFFF" stroke="#0E3C54" stroke-width="2" stroke-miterlimit="10" width="4.229" height="5.145"/>
	
		<rect x="38.678" y="175.612" fill="#FFFFFF" stroke="#0E3C54" stroke-width="2" stroke-miterlimit="10" width="33.948" height="5.145"/>
	
		<rect x="265.629" y="35.24" fill="#FFFFFF" stroke="#0E3C54" stroke-width="2" stroke-miterlimit="10" width="4.229" height="5.145"/>
	
		<rect x="274.633" y="35.24" fill="#FFFFFF" stroke="#0E3C54" stroke-width="2" stroke-miterlimit="10" width="33.947" height="5.145"/>
	
		<rect x="265.629" y="45.185" fill="#FFFFFF" stroke="#0E3C54" stroke-width="2" stroke-miterlimit="10" width="4.229" height="5.144"/>
	
		<rect x="274.633" y="45.185" fill="#FFFFFF" stroke="#0E3C54" stroke-width="2" stroke-miterlimit="10" width="33.947" height="5.144"/>
	<g>
		<path fill="#6BD9E3" stroke="#0E3C54" stroke-width="2" stroke-miterlimit="10" d="M60.092,123.593l-3.977,3.785
			c-1.811-1.822-3.602-2.738-5.372-2.738c-1.044,0-1.892,0.275-2.542,0.818c-0.652,0.543-0.979,1.172-0.979,1.881
			c0,0.602,0.289,1.199,0.864,1.789c0.563,0.605,1.704,1.246,3.418,1.932c3.048,1.234,5.134,2.287,6.259,3.156
			c1.124,0.875,1.991,1.92,2.594,3.137c0.605,1.223,0.906,2.592,0.906,4.109c0,1.512-0.322,2.914-0.967,4.203
			c-0.647,1.287-1.477,2.305-2.495,3.059c-1.014,0.75-2.477,1.322-4.383,1.707v5.373h-3.87v-5.252
			c-1.797-0.199-3.328-0.643-4.59-1.326c-1.729-0.938-3.335-2.186-4.817-3.742l3.91-3.922c2.51,2.611,4.939,3.922,7.287,3.922
			c1.196,0,2.22-0.404,3.079-1.219c0.857-0.811,1.288-1.764,1.288-2.863c0-0.928-0.275-1.738-0.822-2.434
			c-0.564-0.699-1.648-1.414-3.254-2.135c-3.267-1.475-5.477-2.646-6.631-3.512c-1.151-0.863-2.013-1.834-2.583-2.916
			c-0.569-1.078-0.854-2.229-0.854-3.449c0-2.021,0.756-3.758,2.266-5.197c1.509-1.445,3.416-2.221,5.723-2.322v-2.014h3.87v2.27
			c1.333,0.307,2.46,0.723,3.386,1.246C57.732,121.464,58.827,122.349,60.092,123.593z"/>
	</g>
	<g>
		<path fill="#6BD9E3" stroke="#0E3C54" stroke-width="2" stroke-miterlimit="10" d="M60.092,123.593l-3.977,3.785
			c-1.811-1.822-3.602-2.738-5.372-2.738c-1.044,0-1.892,0.275-2.542,0.818c-0.652,0.543-0.979,1.172-0.979,1.881
			c0,0.602,0.289,1.199,0.864,1.789c0.563,0.605,1.704,1.246,3.418,1.932c3.048,1.234,5.134,2.287,6.259,3.156
			c1.124,0.875,1.991,1.92,2.594,3.137c0.605,1.223,0.906,2.592,0.906,4.109c0,1.512-0.322,2.914-0.967,4.203
			c-0.647,1.287-1.477,2.305-2.495,3.059c-1.014,0.75-2.477,1.322-4.383,1.707v5.373h-3.87v-5.252
			c-1.797-0.199-3.328-0.643-4.59-1.326c-1.729-0.938-3.335-2.186-4.817-3.742l3.91-3.922c2.51,2.611,4.939,3.922,7.287,3.922
			c1.196,0,2.22-0.404,3.079-1.219c0.857-0.811,1.288-1.764,1.288-2.863c0-0.928-0.275-1.738-0.822-2.434
			c-0.564-0.699-1.648-1.414-3.254-2.135c-3.267-1.475-5.477-2.646-6.631-3.512c-1.151-0.863-2.013-1.834-2.583-2.916
			c-0.569-1.078-0.854-2.229-0.854-3.449c0-2.021,0.756-3.758,2.266-5.197c1.509-1.445,3.416-2.221,5.723-2.322v-2.014h3.87v2.27
			c1.333,0.307,2.46,0.723,3.386,1.246C57.732,121.464,58.827,122.349,60.092,123.593z"/>
	</g>
	<g>
		<path fill="#6BD9E3" stroke="#0E3C54" stroke-width="2" stroke-miterlimit="10" d="M60.092,123.593l-3.977,3.785
			c-1.811-1.822-3.602-2.738-5.372-2.738c-1.044,0-1.892,0.275-2.542,0.818c-0.652,0.543-0.979,1.172-0.979,1.881
			c0,0.602,0.289,1.199,0.864,1.789c0.563,0.605,1.704,1.246,3.418,1.932c3.048,1.234,5.134,2.287,6.259,3.156
			c1.124,0.875,1.991,1.92,2.594,3.137c0.605,1.223,0.906,2.592,0.906,4.109c0,1.512-0.322,2.914-0.967,4.203
			c-0.647,1.287-1.477,2.305-2.495,3.059c-1.014,0.75-2.477,1.322-4.383,1.707v5.373h-3.87v-5.252
			c-1.797-0.199-3.328-0.643-4.59-1.326c-1.729-0.938-3.335-2.186-4.817-3.742l3.91-3.922c2.51,2.611,4.939,3.922,7.287,3.922
			c1.196,0,2.22-0.404,3.079-1.219c0.857-0.811,1.288-1.764,1.288-2.863c0-0.928-0.275-1.738-0.822-2.434
			c-0.564-0.699-1.648-1.414-3.254-2.135c-3.267-1.475-5.477-2.646-6.631-3.512c-1.151-0.863-2.013-1.834-2.583-2.916
			c-0.569-1.078-0.854-2.229-0.854-3.449c0-2.021,0.756-3.758,2.266-5.197c1.509-1.445,3.416-2.221,5.723-2.322v-2.014h3.87v2.27
			c1.333,0.307,2.46,0.723,3.386,1.246C57.732,121.464,58.827,122.349,60.092,123.593z"/>
	</g>
	<path fill="#FFFFFF" stroke="#0E3C54" stroke-width="2" stroke-miterlimit="10" d="M256.348,129.923v87.514
		c0,1.502,1.227,2.729,2.73,2.729h54.055c1.504,0,2.73-1.227,2.73-2.729v-87.514H256.348z"/>
	<path fill="#FFFFFF" stroke="#0E3C54" stroke-width="2" stroke-miterlimit="10" d="M313.133,119.001h-54.055
		c-1.504,0-2.73,1.23-2.73,2.732v8.189h59.516v-8.189C315.863,120.231,314.637,119.001,313.133,119.001"/>
	<path fill="#FFFFFF" stroke="#0E3C54" stroke-width="2" stroke-miterlimit="10" d="M296.754,124.464
		c0,1.504-1.223,2.729-2.727,2.729c-1.51,0-2.73-1.225-2.73-2.729c0-1.512,1.221-2.73,2.73-2.73
		C295.531,121.733,296.754,122.952,296.754,124.464"/>
	<path fill="#FFFFFF" stroke="#0E3C54" stroke-width="2" stroke-miterlimit="10" d="M304.945,124.464
		c0,1.504-1.223,2.729-2.73,2.729c-1.506,0-2.73-1.225-2.73-2.729c0-1.512,1.225-2.73,2.73-2.73
		C303.723,121.733,304.945,122.952,304.945,124.464"/>
	<path fill="#6BD9E3" stroke="#0E3C54" stroke-width="2" stroke-miterlimit="10" d="M313.133,124.464
		c0,1.504-1.223,2.729-2.73,2.729c-1.506,0-2.727-1.225-2.727-2.729c0-1.512,1.221-2.73,2.727-2.73
		C311.91,121.733,313.133,122.952,313.133,124.464"/>
	<path fill="#FFFFFF" stroke="#0E3C54" stroke-width="2" stroke-miterlimit="10" d="M313.133,17.544h-54.055
		c-1.504,0-2.73,1.23-2.73,2.732v8.19h59.516v-8.19C315.863,18.775,314.637,17.544,313.133,17.544"/>
	<path fill="#FFFFFF" stroke="#0E3C54" stroke-width="2" stroke-miterlimit="10" d="M296.754,23.007
		c0,1.505-1.223,2.729-2.727,2.729c-1.51,0-2.73-1.225-2.73-2.729c0-1.511,1.221-2.73,2.73-2.73
		C295.531,20.277,296.754,21.497,296.754,23.007"/>
	<path fill="#FFFFFF" stroke="#0E3C54" stroke-width="2" stroke-miterlimit="10" d="M304.945,23.007c0,1.505-1.223,2.729-2.73,2.729
		c-1.506,0-2.73-1.225-2.73-2.729c0-1.511,1.225-2.73,2.73-2.73C303.723,20.277,304.945,21.497,304.945,23.007"/>
	<path fill="#6BD9E3" stroke="#0E3C54" stroke-width="2" stroke-miterlimit="10" d="M313.133,23.007c0,1.505-1.223,2.729-2.73,2.729
		c-1.506,0-2.727-1.225-2.727-2.729c0-1.511,1.221-2.73,2.727-2.73C311.91,20.277,313.133,21.497,313.133,23.007"/>
	<polygon fill="#FFFFFF" stroke="#0E3C54" stroke-width="2" stroke-miterlimit="10" points="150.987,126.509 159.974,126.509 
		159.974,106.658 150.987,110.234 	"/>
	<polygon fill="#FFFFFF" stroke="#0E3C54" stroke-width="2" stroke-miterlimit="10" points="139.133,126.509 148.12,126.509 
		147.972,111.304 139.133,114.606 	"/>
	<polygon fill="#6BD9E3" stroke="#0E3C54" stroke-width="2" stroke-miterlimit="10" points="139.114,110.895 170.656,97.856 
		177.67,102.256 193.35,83.413 198.371,87.517 198.371,72.731 183.83,75.115 188.656,79.147 176.984,93.178 169.693,90.978 
		139.151,105.541 	"/>
	<polygon fill="#FFFFFF" stroke="#0E3C54" stroke-width="2" stroke-miterlimit="10" points="170.244,102.601 172.789,103.873 
		172.789,126.509 162.747,126.509 162.747,105.765 	"/>
	<polygon fill="#FFFFFF" stroke="#0E3C54" stroke-width="2" stroke-miterlimit="10" points="185.58,99.368 185.58,126.509 
		175.539,126.509 175.539,105.212 178.875,107.106 	"/>
	<polygon fill="#FFFFFF" stroke="#0E3C54" stroke-width="2" stroke-miterlimit="10" points="193.832,88.296 198.371,92.385 
		198.371,126.509 188.33,126.509 188.33,95.089 	"/>
	<path fill="#6BD9E3" stroke="#0E3C54" stroke-width="2" stroke-miterlimit="10" d="M56.49,16.956H27.582
		c-2.698,0-4.886,2.188-4.886,4.887v18.679c0,2.698,2.188,4.887,4.886,4.887h2.02v7.197c0,0,0.71,2.309,2.488-0.357
		c1.036-1.554,3.004-4.58,4.468-6.84H56.49c2.698,0,4.885-2.188,4.885-4.887V21.842C61.375,19.143,59.188,16.956,56.49,16.956z"/>
	<path fill="#FFFFFF" stroke="#0E3C54" stroke-width="2" stroke-miterlimit="10" d="M75.829,27.119H46.92
		c-2.698,0-4.885,2.188-4.885,4.886v18.68c0,2.697,2.188,4.886,4.885,4.886h19.932c1.464,2.26,3.433,5.287,4.469,6.84
		c1.777,2.666,2.488,0.358,2.488,0.358V55.57h2.02c2.698,0,4.885-2.188,4.885-4.886v-18.68
		C80.714,29.306,78.526,27.119,75.829,27.119z"/>
	<g>
		<text transform="matrix(1 0 0 1 108.5454 115.4126)" fill="#0E3C54" font-family="'Roboto-Bold'" font-size="11.9389">45%</text>
	</g>
	<g>
		<text transform="matrix(1 0 0 1 206.1143 87.3022)" fill="#0E3C54" font-family="'Roboto-Bold'" font-size="11.9389">73%</text>
	</g>
	<g>
		<text transform="matrix(1 0 0 1 206.1143 114.187)" fill="#0E3C54" font-family="'Roboto-Bold'" font-size="11.9389">28%</text>
	</g>
	<rect x="97.826" y="33.373" fill-rule="evenodd" clip-rule="evenodd" fill="none" width="142.913" height="18.823"/>
	<text transform="matrix(1 0 0 1 97.8257 36.521)" opacity="0.5"><tspan x="0" y="0" fill="#868686" font-family="'MyriadPro-Regular'" font-size="4.4348">Lorem</tspan><tspan x="11.898" y="0" fill="#868686" font-family="'MyriadPro-Regular'" font-size="4.4348"> </tspan><tspan x="13.55" y="0" fill="#868686" font-family="'MyriadPro-Regular'" font-size="4.4348">ipsum</tspan><tspan x="25.009" y="0" fill="#868686" font-family="'MyriadPro-Regular'" font-size="4.4348"> </tspan><tspan x="26.661" y="0" fill="#868686" font-family="'MyriadPro-Regular'" font-size="4.4348">dolor</tspan><tspan x="36.527" y="0" fill="#868686" font-family="'MyriadPro-Regular'" font-size="4.4348"> </tspan><tspan x="38.179" y="0" fill="#868686" font-family="'MyriadPro-Regular'" font-size="4.4348">sit</tspan><tspan x="42.441" y="0" fill="#868686" font-family="'MyriadPro-Regular'" font-size="4.4348"> </tspan><tspan x="44.092" y="0" fill="#868686" font-family="'MyriadPro-Regular'" font-size="4.4348">amet,</tspan><tspan x="54.536" y="0" fill="#868686" font-family="'MyriadPro-Regular'" font-size="4.4348"> </tspan><tspan x="56.188" y="0" fill="#868686" font-family="'MyriadPro-Regular'" font-size="4.4348">consectetur</tspan><tspan x="78.086" y="0" fill="#868686" font-family="'MyriadPro-Regular'" font-size="4.4348"> </tspan><tspan x="79.737" y="0" fill="#868686" font-family="'MyriadPro-Regular'" font-size="4.4348">adipiscing</tspan><tspan x="98.696" y="0" fill="#868686" font-family="'MyriadPro-Regular'" font-size="4.4348"> </tspan><tspan x="100.347" y="0" fill="#868686" font-family="'MyriadPro-Regular'" font-size="4.4348">elit,</tspan><tspan x="107.039" y="0" fill="#868686" font-family="'MyriadPro-Regular'" font-size="4.4348"> </tspan><tspan x="108.69" y="0" fill="#868686" font-family="'MyriadPro-Regular'" font-size="4.4348">sed</tspan><tspan x="115.169" y="0" fill="#868686" font-family="'MyriadPro-Regular'" font-size="4.4348"> </tspan><tspan x="116.821" y="0" fill="#868686" font-family="'MyriadPro-Regular'" font-size="4.4348">do</tspan><tspan x="121.756" y="0" fill="#868686" font-family="'MyriadPro-Regular'" font-size="4.4348"> </tspan><tspan x="123.408" y="0" fill="#868686" font-family="'MyriadPro-Regular'" font-size="4.4348">eiusmod</tspan><tspan x="139.5" y="0" fill="#868686" font-family="'MyriadPro-Regular'" font-size="4.4348"> </tspan><tspan x="141.153" y="0" fill="#868686" font-family="'MyriadPro-Regular'" font-size="4.4348">s </tspan><tspan x="0" y="5.322" fill="#868686" font-family="'MyriadPro-Regular'" font-size="4.4348">nostrud</tspan><tspan x="14.515" y="5.322" fill="#868686" font-family="'MyriadPro-Regular'" font-size="4.4348"> </tspan><tspan x="15.331" y="5.322" fill="#868686" font-family="'MyriadPro-Regular'" font-size="4.4348">exercitation</tspan><tspan x="37.309" y="5.322" fill="#868686" font-family="'MyriadPro-Regular'" font-size="4.4348"> </tspan><tspan x="38.125" y="5.322" fill="#868686" font-family="'MyriadPro-Regular'" font-size="4.4348">ullamco</tspan><tspan x="52.919" y="5.322" fill="#868686" font-family="'MyriadPro-Regular'" font-size="4.4348"> </tspan><tspan x="53.736" y="5.322" fill="#868686" font-family="'MyriadPro-Regular'" font-size="4.4348">laboris</tspan><tspan x="66.122" y="5.322" fill="#868686" font-family="'MyriadPro-Regular'" font-size="4.4348"> </tspan><tspan x="66.938" y="5.322" fill="#868686" font-family="'MyriadPro-Regular'" font-size="4.4348">nisi</tspan><tspan x="73.231" y="5.322" fill="#868686" font-family="'MyriadPro-Regular'" font-size="4.4348"> </tspan><tspan x="74.047" y="5.322" fill="#868686" font-family="'MyriadPro-Regular'" font-size="4.4348">ut</tspan><tspan x="77.958" y="5.322" fill="#868686" font-family="'MyriadPro-Regular'" font-size="4.4348"> </tspan><tspan x="78.775" y="5.322" fill="#868686" font-family="'MyriadPro-Regular'" font-size="4.4348">aliquip</tspan><tspan x="91.498" y="5.322" fill="#868686" font-family="'MyriadPro-Regular'" font-size="4.4348"> </tspan><tspan x="92.314" y="5.322" fill="#868686" font-family="'MyriadPro-Regular'" font-size="4.4348">ex</tspan><tspan x="96.588" y="5.322" fill="#868686" font-family="'MyriadPro-Regular'" font-size="4.4348"> </tspan><tspan x="97.405" y="5.322" fill="#868686" font-family="'MyriadPro-Regular'" font-size="4.4348">ea</tspan><tspan x="101.764" y="5.322" fill="#868686" font-family="'MyriadPro-Regular'" font-size="4.4348"> </tspan><tspan x="102.581" y="5.322" fill="#868686" font-family="'MyriadPro-Regular'" font-size="4.4348">commodo</tspan><tspan x="121.77" y="5.322" fill="#868686" font-family="'MyriadPro-Regular'" font-size="4.4348"> </tspan><tspan x="122.586" y="5.322" fill="#868686" font-family="'MyriadPro-Regular'" font-size="4.4348">consequat. </tspan><tspan x="0" y="10.644" fill="#868686" font-family="'MyriadPro-Regular'" font-size="4.4348">Duis</tspan><tspan x="8.191" y="10.644" fill="#868686" font-family="'MyriadPro-Regular'" font-size="4.4348"> </tspan><tspan x="9.319" y="10.644" fill="#868686" font-family="'MyriadPro-Regular'" font-size="4.4348">aute</tspan><tspan x="17.589" y="10.644" fill="#868686" font-family="'MyriadPro-Regular'" font-size="4.4348"> </tspan><tspan x="18.718" y="10.644" fill="#868686" font-family="'MyriadPro-Regular'" font-size="4.4348">irure</tspan><tspan x="27.321" y="10.644" fill="#868686" font-family="'MyriadPro-Regular'" font-size="4.4348"> </tspan><tspan x="28.449" y="10.644" fill="#868686" font-family="'MyriadPro-Regular'" font-size="4.4348">dolor</tspan><tspan x="38.315" y="10.644" fill="#868686" font-family="'MyriadPro-Regular'" font-size="4.4348"> </tspan><tspan x="39.444" y="10.644" fill="#868686" font-family="'MyriadPro-Regular'" font-size="4.4348">in</tspan><tspan x="42.943" y="10.644" fill="#868686" font-family="'MyriadPro-Regular'" font-size="4.4348"> </tspan><tspan x="44.071" y="10.644" fill="#868686" font-family="'MyriadPro-Regular'" font-size="4.4348">reprehenderit</tspan><tspan x="69.761" y="10.644" fill="#868686" font-family="'MyriadPro-Regular'" font-size="4.4348"> </tspan><tspan x="70.889" y="10.644" fill="#868686" font-family="'MyriadPro-Regular'" font-size="4.4348">in</tspan><tspan x="74.387" y="10.644" fill="#868686" font-family="'MyriadPro-Regular'" font-size="4.4348"> </tspan><tspan x="75.516" y="10.644" fill="#868686" font-family="'MyriadPro-Regular'" font-size="4.4348">voluptate</tspan><tspan x="93.392" y="10.644" fill="#868686" font-family="'MyriadPro-Regular'" font-size="4.4348"> </tspan><tspan x="94.52" y="10.644" fill="#868686" font-family="'MyriadPro-Regular'" font-size="4.4348">velit</tspan><tspan x="102.426" y="10.644" fill="#868686" font-family="'MyriadPro-Regular'" font-size="4.4348"> </tspan><tspan x="103.555" y="10.644" fill="#868686" font-family="'MyriadPro-Regular'" font-size="4.4348">esse</tspan><tspan x="111.51" y="10.644" fill="#868686" font-family="'MyriadPro-Regular'" font-size="4.4348"> </tspan><tspan x="112.639" y="10.644" fill="#868686" font-family="'MyriadPro-Regular'" font-size="4.4348">cillum</tspan><tspan x="123.898" y="10.644" fill="#868686" font-family="'MyriadPro-Regular'" font-size="4.4348"> </tspan><tspan x="125.026" y="10.644" fill="#868686" font-family="'MyriadPro-Regular'" font-size="4.4348">dolore</tspan><tspan x="137.114" y="10.644" fill="#868686" font-family="'MyriadPro-Regular'" font-size="4.4348"> </tspan><tspan x="138.243" y="10.644" fill="#868686" font-family="'MyriadPro-Regular'" font-size="4.4348">eu </tspan></text>
	<text transform="matrix(1 0 0 1 127.4736 23.7358)" fill="#0E3C54" font-family="'Roboto-Bold'" font-size="13.4789">ONLINE DATA</text>
	<path fill="none" stroke="#0E3C54" stroke-width="2" stroke-miterlimit="10" stroke-dasharray="2" d="M284.506,79.541h23.334
		c0,0,6.381-0.521,6.381,6.38v6.499l-0.01,1.905v5.334c0,0,0.521,6.38-6.379,6.38h-6.5h-1.807h-6.5c-6.9,0-6.379,6.38-6.379,6.38
		v5.334"/>
	<path fill="none" stroke="#0E3C54" stroke-width="2" stroke-miterlimit="10" stroke-dasharray="2" d="M49.12,55.57v12.889
		c0,6.901,6.38,6.38,6.38,6.38h10.125l-5.813,0.018h5.334c0,0,6.38-0.521,6.38,6.38v13.493"/>
	<path fill="none" stroke="#0E3C54" stroke-width="2" stroke-miterlimit="10" stroke-dasharray="2" d="M97.028,212.479H39.497
		c0,0-6.38,0.521-6.38-6.381v-8.889"/>
	<g>
		<g>
			<g>
				
					<rect x="110.45" y="80.953" fill="#FFFFFF" stroke="#0E3C54" stroke-width="2" stroke-miterlimit="10" width="57.318" height="4.162"/>
			</g>
		</g>
		<g>
			<g>
				
					<rect x="110.45" y="88.353" fill="#FFFFFF" stroke="#0E3C54" stroke-width="2" stroke-miterlimit="10" width="26.377" height="3.375"/>
			</g>
		</g>
		<g>
			<g>
				
					<rect x="110.45" y="69.544" fill="#6BD9E3" stroke="#0E3C54" stroke-width="2" stroke-miterlimit="10" width="57.318" height="4.164"/>
			</g>
		</g>
	</g>
	<g>
		<path fill="#6BD9E3" stroke="#0E3C54" stroke-width="2" stroke-miterlimit="10" d="M283.598,197.179
			c0.906,1.947,2.271,3.457,4.109,4.527s3.916,1.605,6.234,1.605c1.49,0,3.021-0.303,4.586-0.904v6.223
			c-1.387,0.398-2.943,0.596-4.676,0.596c-4.107,0-7.686-1.061-10.727-3.182c-3.043-2.121-5.104-5.078-6.191-8.865h-3.25
			l0.879-3.621h1.764c-0.031-0.279-0.045-0.756-0.045-1.434c0-0.633,0.014-1.09,0.045-1.369h-2.643l0.926-3.619h2.369
			c1.133-3.736,3.26-6.672,6.385-8.805c3.121-2.135,6.652-3.199,10.578-3.199c1.537,0,3.064,0.229,4.586,0.682l-1.375,5.783
			c-1.162-0.367-2.273-0.551-3.348-0.551c-2.164,0-4.16,0.539-5.982,1.611c-1.824,1.074-3.213,2.564-4.176,4.479h12.148
			l-0.836,3.619h-12.4c-0.059,0.59-0.09,1.043-0.09,1.369c0,0.367,0.031,0.846,0.09,1.434h11.721l-0.881,3.621H283.598z"/>
	</g>
	<polygon fill="#FFFFFF" stroke="#0E3C54" stroke-width="2" stroke-miterlimit="10" points="266.818,138.39 266.818,140.331 
		265.627,141.71 264.434,143.085 265.627,144.462 266.818,145.841 266.818,165.587 307.777,165.587 307.777,138.39 	"/>
	<path fill="#FFFFFF" stroke="#0E3C54" stroke-width="2" stroke-miterlimit="10" d="M296.174,152.362
		c0.525-0.879,0.844-1.889,0.844-2.984c0-3.219-2.609-5.828-5.828-5.828c-2.676,0-4.906,1.811-5.592,4.27
		c-0.795-0.832-1.91-1.355-3.152-1.355c-2.412,0-4.371,1.957-4.371,4.371c0,0.523,0.107,1.021,0.275,1.486
		c-0.09-0.008-0.182-0.027-0.275-0.027c-1.609,0-2.914,2.033-2.914,3.643c0,1.611,1.305,3.643,2.914,3.643h17.486
		c1.609,0,2.916-2.031,2.916-3.643C298.477,154.538,297.488,152.642,296.174,152.362z"/>
</g>
<g id="text">
</g>
<g id="Layer_1">
</g>
<g id="Layer_3">
</g>
<g id="Layer_4">
</g>
<g id="Layer_5">
</g>
<g id="Layer_6">
</g>
<g id="Layer_7">
</g>
</svg>
